<svg width="6" height="10" viewBox="0 0 6 10" fill="none" xmlns="http://www.w3.org/2000/svg">
<path d="M5.71516 4.6098L1.26503 0.159755C1.1621 0.0567475 1.02471 0 0.878204 0C0.731701 0 0.594304 0.0567475 0.491378 0.159755L0.163657 0.487394C-0.0495933 0.700889 -0.0495933 1.04788 0.163657 1.26105L3.90054 4.99793L0.159511 8.73895C0.0565847 8.84196 -0.000244141 8.97928 -0.000244141 9.1257C-0.000244141 9.27228 0.0565847 9.4096 0.159511 9.51269L0.487232 9.84025C0.590239 9.94325 0.727555 10 0.874058 10C1.02056 10 1.15796 9.94325 1.26088 9.84025L5.71516 5.38614C5.81833 5.2828 5.87499 5.14484 5.87467 4.99817C5.87499 4.85094 5.81833 4.71305 5.71516 4.6098Z" fill="black" fill-opacity="0.5"/>
</svg>
