<svg width="16" height="14" viewBox="0 0 16 14" fill="none" xmlns="http://www.w3.org/2000/svg">
<path d="M6.66666 4.00003C6.66666 3.82203 6.596 3.65138 6.46866 3.52603L5.43066 2.50003L6.46866 1.47403C6.66066 1.28403 6.71931 0.996687 6.61666 0.746687C6.514 0.496687 6.27 0.333374 6 0.333374H0.666656C0.298 0.333374 0 0.63203 0 1.00003V13C0 13.368 0.298 13.6667 0.666656 13.6667H6C6.27 13.6667 6.514 13.5034 6.61666 13.2534C6.71931 13.0034 6.66066 12.716 6.46866 12.526L5.43066 11.5L6.46866 10.474C6.596 10.3487 6.66666 10.178 6.66666 10C6.66666 9.82204 6.596 9.65138 6.46866 9.52604L5.43066 8.50004L6.46866 7.47403C6.596 7.34869 6.66666 7.17803 6.66666 7.00003C6.66666 6.82203 6.596 6.65138 6.46866 6.52603L5.43066 5.50003L6.46866 4.47403C6.596 4.34869 6.66666 4.17803 6.66666 4.00003Z" fill="#4E2E8A"/>
<path d="M15.3333 0.333374H10.85C10.6746 0.333374 10.5066 0.402718 10.3813 0.52603L8.86466 2.02603C8.73731 2.15138 8.66666 2.32203 8.66666 2.50003C8.66666 2.67803 8.73731 2.84869 8.86466 2.97403L9.90263 4.00003L8.86463 5.02603C8.73728 5.15138 8.66663 5.32203 8.66663 5.50003C8.66663 5.67803 8.73728 5.84869 8.86463 5.97403L9.90263 7.00003L8.86463 8.02604C8.73728 8.15138 8.66663 8.32204 8.66663 8.50004C8.66663 8.67804 8.73728 8.84869 8.86463 8.97404L9.90263 10L8.86463 11.026C8.73728 11.1514 8.66663 11.322 8.66663 11.5C8.66663 11.678 8.73728 11.8487 8.86463 11.974L10.3813 13.474C10.5066 13.5974 10.6746 13.6667 10.8499 13.6667H15.3333C15.7019 13.6667 15.9999 13.368 15.9999 13V1.00003C16 0.63203 15.702 0.333374 15.3333 0.333374Z" fill="#4E2E8A"/>
</svg>
