<svg width="16" height="16" viewBox="0 0 16 16" fill="none" xmlns="http://www.w3.org/2000/svg">
<path d="M13.5136 10.0896C14.8724 9.13 15.7007 8.1781 15.7354 8.13804L16 7.83162L15.7354 7.52521C15.7008 7.48514 14.8724 6.53325 13.5136 5.57366C11.697 4.29085 9.79016 3.61277 7.99912 3.61277C7.03107 3.61277 6.0293 3.81128 5.02627 4.19585L0.830401 0L0.16748 0.662922L15.1678 15.6633L15.8307 15.0004L11.8927 11.0623C12.4373 10.7915 12.9794 10.4668 13.5136 10.0896V10.0896ZM7.99912 5.48782C9.29149 5.48782 10.3429 6.53925 10.3429 7.83162C10.3429 8.30863 10.1994 8.75258 9.9536 9.12321L9.26796 8.43757C9.35599 8.25398 9.4054 8.04847 9.4054 7.83162C9.4054 7.0562 8.77454 6.42534 7.99912 6.42534C7.78227 6.42534 7.5768 6.47475 7.3932 6.56278L6.70756 5.87714C7.07813 5.63138 7.52211 5.48782 7.99912 5.48782Z" fill="#4E2E8A"/>
<path d="M7.99909 10.1754C6.70672 10.1754 5.65529 9.12395 5.65529 7.83158C5.65529 7.71914 5.66373 7.60866 5.67913 7.50038L3.25098 5.07224C2.99441 5.22758 2.739 5.39452 2.48537 5.57365C1.12696 6.53327 0.299038 7.48519 0.264444 7.52526L0 7.83158L0.264444 8.13789C0.299038 8.17796 1.12696 9.12989 2.48537 10.0895C4.30138 11.3723 6.20802 12.0504 7.99909 12.0504C8.64377 12.0504 9.30347 11.9621 9.96855 11.7898L8.33029 10.1516C8.222 10.1669 8.11153 10.1754 7.99909 10.1754Z" fill="#4E2E8A"/>
</svg>
