<svg width="16" height="15" viewBox="0 0 16 15" fill="none" xmlns="http://www.w3.org/2000/svg">
<g clip-path="url(#clip0)">
<path d="M15.6549 7.35078C14.172 4.45754 11.2364 2.5 7.87505 2.5C4.51368 2.5 1.57723 4.45891 0.0952023 7.35105C0.0326513 7.47479 6.10352e-05 7.61149 6.10352e-05 7.75014C6.10352e-05 7.88878 0.0326513 8.02549 0.0952023 8.14922C1.57805 11.0425 4.51368 13 7.87505 13C11.2364 13 14.1729 11.0411 15.6549 8.14895C15.7174 8.02521 15.75 7.88851 15.75 7.74986C15.75 7.61122 15.7174 7.47451 15.6549 7.35078ZM7.87505 11.6875C7.09628 11.6875 6.33501 11.4566 5.68749 11.0239C5.03997 10.5913 4.53529 9.9763 4.23727 9.25682C3.93925 8.53733 3.86127 7.74563 4.0132 6.98183C4.16513 6.21803 4.54014 5.51644 5.09081 4.96577C5.64148 4.4151 6.34308 4.04009 7.10688 3.88816C7.87068 3.73623 8.66238 3.8142 9.38186 4.11222C10.1013 4.41024 10.7163 4.91492 11.149 5.56244C11.5816 6.20996 11.8125 6.97124 11.8125 7.75C11.8128 8.26715 11.7111 8.77928 11.5133 9.25711C11.3155 9.73495 11.0255 10.1691 10.6598 10.5348C10.2942 10.9005 9.85999 11.1905 9.38216 11.3883C8.90433 11.5861 8.3922 11.6878 7.87505 11.6875ZM7.87505 5.125C7.64075 5.12827 7.40796 5.16313 7.18298 5.22863C7.36843 5.48065 7.45742 5.79079 7.43382 6.1028C7.41021 6.41481 7.27558 6.70802 7.05432 6.92928C6.83307 7.15053 6.53985 7.28517 6.22784 7.30877C5.91584 7.33237 5.6057 7.24338 5.35368 7.05793C5.21017 7.58665 5.23607 8.14705 5.42775 8.66027C5.61942 9.17349 5.96721 9.61369 6.42217 9.91889C6.87712 10.2241 7.41633 10.379 7.9639 10.3617C8.51148 10.3444 9.03984 10.1558 9.47462 9.82247C9.90941 9.48915 10.2287 9.02789 10.3876 8.50359C10.5465 7.97929 10.537 7.41837 10.3604 6.89977C10.1838 6.38116 9.84903 5.93099 9.40319 5.61262C8.95735 5.29425 8.42289 5.12371 7.87505 5.125Z" fill="#4E2E8A"/>
</g>
<defs>
<clipPath id="clip0">
<rect width="15.75" height="14" fill="white" transform="translate(0 0.75)"/>
</clipPath>
</defs>
</svg>
