<svg width="16" height="17" viewBox="0 0 16 17" fill="none" xmlns="http://www.w3.org/2000/svg">
<g clip-path="url(#clip0)">
<path d="M8.00013 5.49988C7.44884 5.49988 7.00012 5.9486 7.00012 6.49989V7.49989H9.00014V6.49989C9.00014 5.9486 8.55142 5.49988 8.00013 5.49988Z" fill="#4E2E8A"/>
<path d="M14.4324 0.598267C14.0851 0.431766 13.674 0.47961 13.3732 0.720831C12.1237 1.72524 9.8747 1.72474 8.62713 0.721331C8.26091 0.426391 7.73943 0.426891 7.37321 0.720831C6.12426 1.72521 3.87425 1.72471 2.62714 0.721299C2.3268 0.47961 1.91433 0.431735 1.56848 0.598236C1.22145 0.764268 1.00026 1.11533 1.00026 1.50012L0.999756 9.50018C0.999756 12.6345 3.51246 15.2363 7.72087 16.4604C7.81218 16.4868 7.90594 16.5 8.00022 16.5C8.09441 16.5 8.18822 16.4868 8.27953 16.4604C12.488 15.2363 15.0002 12.635 15.0002 9.50018V1.50012C15.0002 1.11533 14.7795 0.764268 14.4324 0.598267ZM11.0002 10.4999C11.0002 11.0524 10.5525 11.4999 10.0002 11.4999H6.00017C5.44785 11.4999 5.00016 11.0524 5.00016 10.4999V8.49992C5.00016 7.94766 5.44785 7.49991 6.00017 7.49991V6.4999C6.00017 5.39736 6.89715 4.49989 8.00019 4.49989C9.10323 4.49989 10.0002 5.39736 10.0002 6.4999V7.49991C10.5525 7.49991 11.0002 7.94766 11.0002 8.49992V10.4999Z" fill="#4E2E8A"/>
<path d="M8.00025 8.99994C7.72412 8.99994 7.50024 9.22382 7.50024 9.49994C7.50024 9.77632 7.72412 9.99995 8.00025 9.99995C8.27638 9.99995 8.50025 9.77632 8.50025 9.49994C8.50025 9.22382 8.27638 8.99994 8.00025 8.99994Z" fill="#4E2E8A"/>
</g>
<defs>
<clipPath id="clip0">
<rect width="16" height="16" fill="white" transform="translate(0 0.5)"/>
</clipPath>
</defs>
</svg>
