<svg width="20" height="21" viewBox="0 0 20 21" fill="none" xmlns="http://www.w3.org/2000/svg">
<g clip-path="url(#clip0)">
<path d="M9.16667 13C7.78833 13 6.66667 11.8783 6.66667 10.5C6.66667 9.12167 7.78833 8 9.16667 8H13.3333V2.79167C13.3333 1.5275 12.3058 0.5 11.0417 0.5H2.29167C1.0275 0.5 0 1.5275 0 2.79167V18.2083C0 19.4725 1.0275 20.5 2.29167 20.5H11.0417C12.3058 20.5 13.3333 19.4725 13.3333 18.2083V13H9.16667Z" fill="#4E2E8A"/>
<path d="M15.5142 14.6033C15.2034 14.4742 15 14.17 15 13.8333V11.3333H9.16671C8.70671 11.3333 8.33337 10.96 8.33337 10.5C8.33337 10.04 8.70671 9.66668 9.16671 9.66668H15V7.16668C15 6.83001 15.2034 6.52585 15.5142 6.39668C15.8259 6.26752 16.1842 6.33918 16.4225 6.57751L19.7559 9.91084C20.0817 10.2367 20.0817 10.7633 19.7559 11.0892L16.4225 14.4225C16.1842 14.6608 15.8259 14.7325 15.5142 14.6033Z" fill="#4E2E8A"/>
</g>
<defs>
<clipPath id="clip0">
<rect width="20" height="20" fill="white" transform="translate(0 0.5)"/>
</clipPath>
</defs>
</svg>
