<svg width="12" height="16" viewBox="0 0 12 16" fill="none" xmlns="http://www.w3.org/2000/svg">
<path d="M5.99992 0C2.80068 0 0.217285 2.5834 0.217285 5.78263C0.217285 6.8981 0.573616 7.96322 1.06938 8.83852L4.83797 15.3609C5.07423 15.7869 5.55063 16 5.99992 16C6.44924 16 6.90236 15.7869 7.16187 15.3609L10.9305 8.84239C11.4301 7.96702 11.7826 6.92127 11.7826 5.78643C11.7826 2.58727 9.19915 0 5.99992 0ZM5.99992 7.4907C4.83797 7.4907 3.88904 6.54177 3.88904 5.37982C3.88904 4.21788 4.83797 3.26895 5.99992 3.26895C7.16187 3.26895 8.11079 4.21788 8.11079 5.37982C8.11079 6.54565 7.16187 7.4907 5.99992 7.4907Z" fill="#4E2E8A"/>
</svg>
