<svg width="13" height="15" viewBox="0 0 13 15" fill="none" xmlns="http://www.w3.org/2000/svg">
<g clip-path="url(#clip0)">
<path d="M11.0356 6.95581H10.3794V4.98706C10.3794 2.69565 8.51455 0.830811 6.22314 0.830811C3.93174 0.830811 2.06689 2.69565 2.06689 4.98706V6.95581H1.41064C0.686035 6.95581 0.0981445 7.5437 0.0981445 8.26831V13.5183C0.0981445 14.2429 0.686035 14.8308 1.41064 14.8308H11.0356C11.7603 14.8308 12.3481 14.2429 12.3481 13.5183V8.26831C12.3481 7.5437 11.7603 6.95581 11.0356 6.95581ZM8.19189 6.95581H4.25439V4.98706C4.25439 3.90151 5.1376 3.01831 6.22314 3.01831C7.30869 3.01831 8.19189 3.90151 8.19189 4.98706V6.95581Z" fill="black" fill-opacity="0.5"/>
</g>
<defs>
<clipPath id="clip0">
<rect width="12.25" height="14" fill="white" transform="translate(0.0981445 0.830811)"/>
</clipPath>
</defs>
</svg>
