<svg width="16" height="16" viewBox="0 0 16 16" fill="none" xmlns="http://www.w3.org/2000/svg">
<path d="M12.1524 9.78279C11.7951 9.69613 11.4351 9.91944 11.3504 10.2774C11.2651 10.6354 11.4871 10.9948 11.8451 11.0794C13.9157 11.5708 14.6664 12.2974 14.6664 12.6667C14.6664 13.4634 12.0078 14.6667 7.99984 14.6667C3.99258 14.6667 1.33332 13.4634 1.33332 12.6667C1.33332 12.2974 2.08465 11.5708 4.15392 11.0794C4.51257 10.9948 4.73391 10.6354 4.64856 10.2774C4.56391 9.91944 4.20392 9.6961 3.84658 9.78279C1.36597 10.3708 0 11.3948 0 12.6667C0 14.8547 4.02526 16 7.99984 16C11.9751 16 15.9997 14.8547 15.9997 12.6667C15.9997 11.3948 14.6337 10.3708 12.1524 9.78279Z" fill="#4E2E8A"/>
<path d="M8.00014 5.33365C8.36813 5.33365 8.66678 5.035 8.66678 4.66701C8.66678 4.29902 8.36813 4.00037 8.00014 4.00037C7.63215 4.00037 7.3335 4.29902 7.3335 4.66701C7.3335 5.035 7.63215 5.33365 8.00014 5.33365Z" fill="#4E2E8A"/>
<path d="M7.13219 12.4222L7.40353 12.9648C7.51687 13.1908 7.74752 13.3335 8.00017 13.3335C8.25282 13.3335 8.48351 13.1908 8.59682 12.9648L9.17146 11.8155C9.87079 10.4162 10.7334 9.0609 11.5674 7.75024L11.9474 7.15225C12.4181 6.40827 12.6667 5.54894 12.6667 4.66696C12.6667 3.33898 12.0981 2.06966 11.1068 1.18437C10.1161 0.29973 8.7835 -0.124231 7.45487 0.0317664C5.38022 0.267762 3.66695 1.93839 3.37961 4.00369C3.20961 5.22766 3.5156 6.44298 4.24025 7.42697C5.37091 8.9589 6.25355 10.6636 7.13219 12.4222ZM8.00017 2.66703C9.10281 2.66703 10.0001 3.56435 10.0001 4.66699C10.0001 5.76962 9.10281 6.66695 8.00017 6.66695C6.89754 6.66695 6.00021 5.76962 6.00021 4.66699C6.00021 3.56435 6.89754 2.66703 8.00017 2.66703Z" fill="#4E2E8A"/>
</svg>
