<svg width="24" height="24" viewBox="0 0 24 24" fill="none" xmlns="http://www.w3.org/2000/svg">
<path d="M17.9821 1.50623C15.518 1.50623 13.5132 3.51105 13.5132 5.9751C13.5132 8.43896 15.518 10.4438 17.9821 10.4438C20.4461 10.4438 22.4507 8.43896 22.4507 5.9751C22.4507 3.51105 20.4461 1.50623 17.9821 1.50623Z" fill="#E00303"/>
<path d="M17.8484 16.6835V11.8484C14.6704 11.777 12.1069 9.16974 12.1069 5.9751C12.1069 5.03833 12.3278 4.15247 12.7192 3.36584C11.9936 3.13257 11.2306 3.01245 10.4507 3.01245C6.3717 3.01245 3.0531 6.33105 3.0531 10.4101V16.6835C2.17859 16.9777 1.54688 17.8055 1.54688 18.7782C1.54688 19.9964 2.53802 20.9875 3.75623 20.9875H17.1453C18.3635 20.9875 19.3546 19.9964 19.3546 18.7782C19.3546 17.8055 18.7231 16.9777 17.8484 16.6835Z" fill="white"/>
<path d="M10.4507 24C11.7165 24 12.836 23.3632 13.5071 22.3938H7.39429C8.06537 23.3632 9.18488 24 10.4507 24Z" fill="white"/>
<path d="M12.6353 1.87885C12.4753 0.816833 11.5566 0 10.4507 0C9.34418 0 8.42517 0.817749 8.26587 1.88068C8.96478 1.7016 9.69684 1.6062 10.4507 1.6062C11.1961 1.6062 11.9283 1.69849 12.6353 1.87885Z" fill="white"/>
</svg>
