<svg width="16" height="16" viewBox="0 0 16 16" fill="none" xmlns="http://www.w3.org/2000/svg">
<path d="M14.1039 8.00216C14.0324 8.36103 13.7141 8.62245 13.3325 8.63869C13.2124 8.64356 13.1101 8.73124 13.0873 8.84978C13.063 8.96832 13.1231 9.08848 13.2319 9.13882C13.5777 9.3012 13.771 9.66493 13.6979 10.0238L13.6297 10.3648C13.5404 10.8146 13.0435 11.0955 12.6083 10.9883C12.4865 10.9591 12.3615 10.9364 12.2381 10.912C12.0562 10.8763 11.8743 10.8389 11.6925 10.8032C11.4521 10.7545 11.2118 10.7074 10.9715 10.6587C10.6857 10.6019 10.3983 10.5434 10.1125 10.4866C9.79262 10.4216 9.47273 10.3583 9.15282 10.2934C8.81182 10.2252 8.46919 10.157 8.12819 10.0871C7.77743 10.0173 7.4267 9.94586 7.07758 9.87604C6.73008 9.80622 6.38421 9.73638 6.0367 9.66657C5.70546 9.59999 5.37418 9.53342 5.04294 9.46684C4.73928 9.40676 4.43725 9.34506 4.1336 9.28498C3.87054 9.23302 3.60748 9.17943 3.34605 9.12747C3.13657 9.08525 2.9271 9.04305 2.71601 9.00081C2.57149 8.97158 2.42695 8.94235 2.28245 8.91314C2.21585 8.90013 2.14929 8.88554 2.08272 8.87255C2.07947 8.87255 2.07622 8.87091 2.07296 8.87091C2.10868 9.03978 2.09244 9.22002 2.0145 9.3889C1.85048 9.74289 1.46888 9.928 1.10191 9.85655C0.993119 9.83545 0.87458 9.87604 0.827489 9.97672L0.681346 10.2934C0.634271 10.394 0.681346 10.5109 0.767424 10.5808C0.783662 10.5938 12.4881 15.9897 12.5076 15.9945C12.6164 16.0156 12.7349 15.975 12.782 15.8744L12.9282 15.5577C12.9753 15.457 12.9282 15.3401 12.8421 15.2703C12.5498 15.0381 12.4426 14.6273 12.6067 14.2733C12.7707 13.9193 13.1523 13.7342 13.5193 13.8056C13.628 13.8268 13.7466 13.7862 13.7937 13.6855L13.9398 13.3688C13.9869 13.2682 13.9398 13.1513 13.8537 13.0814C13.5615 12.8492 13.4543 12.4384 13.6183 12.0844C13.7823 11.7305 14.1639 11.5453 14.5309 11.6168C14.6397 11.6379 14.7582 11.5973 14.8053 11.4966L14.9514 11.18C14.9985 11.0793 14.9514 10.9624 14.8654 10.8926C14.5731 10.6604 14.4659 10.2495 14.6299 9.89554C14.7939 9.54155 15.1755 9.35646 15.5425 9.42789C15.6513 9.449 15.7698 9.4084 15.8169 9.30774L15.9777 8.95698C16.0248 8.85631 15.9809 8.73777 15.8802 8.6907L14.1314 7.88367L14.1039 8.00216Z" fill="#4E2E8A"/>
<path d="M0.156914 7.89011C0.1764 7.89985 12.8113 10.4346 12.8324 10.4346C12.9429 10.4297 13.05 10.3615 13.0711 10.2544L13.1393 9.91336C13.1604 9.80457 13.089 9.70064 12.9883 9.65355C12.6506 9.49442 12.4508 9.12094 12.5272 8.73772C12.6035 8.3545 12.9331 8.08657 13.3066 8.07034C13.417 8.06546 13.5242 7.99726 13.5453 7.89009L13.5956 7.64003L13.6135 7.54747C13.6346 7.43867 13.5631 7.33475 13.4625 7.28766C13.1247 7.12853 12.925 6.75505 13.0013 6.37185C13.0776 5.98861 13.4073 5.72068 13.7808 5.70444C13.8912 5.69957 13.9983 5.63137 14.0195 5.5242L14.0877 5.1832C14.1088 5.07441 14.0373 4.97048 13.9366 4.92339C13.5989 4.76426 13.3991 4.39078 13.4755 4.00756C13.5518 3.62434 13.8814 3.35642 14.2549 3.34018C14.3653 3.33531 14.4725 3.26711 14.4936 3.15993L14.5699 2.78159C14.591 2.67279 14.5212 2.56724 14.4124 2.54613C14.4124 2.54613 1.71579 0 1.7028 0C1.60862 0 1.52581 0.0665762 1.50632 0.160757L1.43 0.539105C1.40889 0.6479 1.48034 0.751824 1.58102 0.798915C1.91877 0.958048 2.1185 1.33152 2.04218 1.71474C1.96586 2.09796 1.63623 2.36589 1.26275 2.38213C1.15231 2.387 1.04516 2.4552 1.02405 2.56237L0.955849 2.90337C0.934739 3.01217 1.00619 3.11609 1.10686 3.16318C1.44462 3.32232 1.64436 3.69579 1.56803 4.07901C1.49171 4.46223 1.16207 4.73016 0.788595 4.7464C0.678176 4.75127 0.571004 4.81947 0.549894 4.92664L0.481694 5.26764C0.460584 5.37644 0.532049 5.48036 0.632709 5.52745C0.970479 5.68658 1.17021 6.06006 1.09387 6.44328C1.01755 6.82651 0.687919 7.09444 0.314441 7.11068C0.204021 7.11555 0.0968494 7.18375 0.0757398 7.29092L0.00753949 7.63192C-0.0152102 7.74072 0.0562215 7.84302 0.156914 7.89011ZM10.9797 3.72828C11.0235 3.50907 11.2378 3.36617 11.4571 3.41002C11.6763 3.45386 11.8192 3.6682 11.7753 3.88742L11.2395 6.55371L10.9098 8.19701C10.8709 8.39024 10.702 8.52341 10.512 8.52341C10.486 8.52341 10.4584 8.52016 10.4324 8.51529C10.2132 8.47145 10.0703 8.25711 10.1142 8.03789L10.4828 6.20461L10.9797 3.72828ZM3.65949 2.25874C3.70333 2.03952 3.91767 1.89663 4.13689 1.94047C4.3561 1.98431 4.499 2.19866 4.45516 2.41787L4.27004 3.33857L4.06059 4.38268L3.89171 5.22381L3.5913 6.72746C3.55235 6.92069 3.38345 7.05386 3.19347 7.05386C3.16749 7.05386 3.13988 7.05062 3.11392 7.04574C3.10255 7.0441 3.09118 7.04086 3.08144 7.03763C2.88009 6.97915 2.75504 6.77618 2.79727 6.56834L2.85734 6.26469L3.01485 5.47877L3.65949 2.25874Z" fill="#4E2E8A"/>
</svg>
