<svg width="16" height="16" viewBox="0 0 16 16" fill="none" xmlns="http://www.w3.org/2000/svg">
<path d="M13.2031 3.09375V2.34375C13.2031 1.05141 12.1517 0 10.8594 0H5.10938C3.81703 0 2.76562 1.05141 2.76562 2.34375V3.09375H13.2031Z" fill="#4E2E8A"/>
<path d="M3.70312 9.96875V13.7812V14.5938V15.0625C3.70312 15.5802 4.12284 16 4.64062 16H11.3281C11.8459 16 12.2656 15.5802 12.2656 15.0625V14.5938V13.7812V9.96875H3.70312ZM9.23438 13.9688H6.73438C6.4755 13.9688 6.26562 13.7589 6.26562 13.5C6.26562 13.2411 6.4755 13.0312 6.73438 13.0312H9.23438C9.49325 13.0312 9.70312 13.2411 9.70312 13.5C9.70312 13.7589 9.49325 13.9688 9.23438 13.9688ZM9.23438 11.9688H6.73438C6.4755 11.9688 6.26562 11.7589 6.26562 11.5C6.26562 11.2411 6.4755 11.0312 6.73438 11.0312H9.23438C9.49325 11.0312 9.70312 11.2411 9.70312 11.5C9.70312 11.7589 9.49325 11.9688 9.23438 11.9688Z" fill="#4E2E8A"/>
<path d="M13.6406 4.03125H2.35938C1.06703 4.03125 0.015625 5.08266 0.015625 6.375V10.125C0.015625 11.4173 1.06703 12.4688 2.35938 12.4688H2.76562V9.96875H2.48438C2.2255 9.96875 2.01562 9.75887 2.01562 9.5C2.01562 9.24113 2.2255 9.03125 2.48438 9.03125H3.23438H12.7344H13.4844C13.7432 9.03125 13.9531 9.24113 13.9531 9.5C13.9531 9.75887 13.7432 9.96875 13.4844 9.96875H13.2031V12.4688H13.6406C14.933 12.4688 15.9844 11.4173 15.9844 10.125V6.375C15.9844 5.08266 14.933 4.03125 13.6406 4.03125ZM3.98438 6.96875H2.48438C2.2255 6.96875 2.01562 6.75887 2.01562 6.5C2.01562 6.24113 2.2255 6.03125 2.48438 6.03125H3.98438C4.24325 6.03125 4.45312 6.24113 4.45312 6.5C4.45312 6.75887 4.24325 6.96875 3.98438 6.96875Z" fill="#4E2E8A"/>
</svg>
