<svg width="16" height="17" viewBox="0 0 16 17" fill="none" xmlns="http://www.w3.org/2000/svg">
<g clip-path="url(#clip0)">
<path d="M8 0.5C3.58862 0.5 0 4.08862 0 8.5C0 12.9114 3.58862 16.5 8 16.5C12.4114 16.5 16 12.9114 16 8.5C16 4.08862 12.4114 0.5 8 0.5ZM8 13.1666C7.63196 13.1666 7.33337 12.868 7.33337 12.5C7.33337 12.132 7.63196 11.8334 8 11.8334C8.36804 11.8334 8.66663 12.132 8.66663 12.5C8.66663 12.868 8.36804 13.1666 8 13.1666V13.1666ZM9.0553 8.92798C8.81934 9.03662 8.66663 9.27466 8.66663 9.53406V9.83337C8.66663 10.2013 8.36865 10.5 8 10.5C7.63135 10.5 7.33337 10.2013 7.33337 9.83337V9.53406C7.33337 8.75598 7.79065 8.04272 8.4967 7.71667C9.17603 7.40405 9.66663 6.57397 9.66663 6.16663C9.66663 5.24805 8.91931 4.5 8 4.5C7.08069 4.5 6.33337 5.24805 6.33337 6.16663C6.33337 6.53467 6.03528 6.83337 5.66663 6.83337C5.29797 6.83337 5 6.53467 5 6.16663C5 4.5127 6.34595 3.16663 8 3.16663C9.65405 3.16663 11 4.5127 11 6.16663C11 7.06738 10.2186 8.39136 9.0553 8.92798Z" fill="#4E2E8A"/>
</g>
<defs>
<clipPath id="clip0">
<rect width="16" height="16" fill="white" transform="translate(0 0.5)"/>
</clipPath>
</defs>
</svg>
