<svg width="16" height="17" viewBox="0 0 16 17" fill="none" xmlns="http://www.w3.org/2000/svg">
<g clip-path="url(#clip0)">
<path d="M15.9582 6.63693C15.8528 6.31295 15.5655 6.08358 15.2268 6.05294L10.6081 5.63362L8.78275 1.36012C8.64798 1.04615 8.34134 0.843506 8.00002 0.843506C7.65871 0.843506 7.35194 1.04615 7.21803 1.36012L5.39268 5.63362L0.773216 6.05294C0.434587 6.08419 0.147839 6.31356 0.0418805 6.63693C-0.0634679 6.96091 0.0338237 7.31626 0.289932 7.54088L3.78132 10.6023L2.75189 15.1363C2.67657 15.4697 2.80596 15.8144 3.08258 16.0144C3.23126 16.1224 3.40595 16.1764 3.58125 16.1764C3.73188 16.1764 3.88264 16.1364 4.01729 16.0558L8.00002 13.6744L11.982 16.0558C12.2741 16.2303 12.6415 16.2144 12.9175 16.0144C13.1941 15.8144 13.3235 15.4697 13.2482 15.1363L12.2187 10.6023L15.7101 7.54088C15.9661 7.31626 16.0635 6.96164 15.9582 6.63693V6.63693Z" fill="#4E2E8A"/>
</g>
<defs>
<clipPath id="clip0">
<rect width="16" height="16" fill="white" transform="translate(0 0.5)"/>
</clipPath>
</defs>
</svg>
