<svg width="10" height="11" viewBox="0 0 10 11" fill="none" xmlns="http://www.w3.org/2000/svg">
<g clip-path="url(#clip0)">
<path d="M7.7779 5.1098L3.32777 0.659755C3.22485 0.556748 3.08745 0.5 2.94095 0.5C2.79445 0.5 2.65705 0.556748 2.55412 0.659755L2.2264 0.987394C2.01315 1.20089 2.01315 1.54788 2.2264 1.76105L5.96328 5.49793L2.22225 9.23895C2.11933 9.34196 2.0625 9.47928 2.0625 9.6257C2.0625 9.77228 2.11933 9.9096 2.22225 10.0127L2.54998 10.3402C2.65298 10.4433 2.7903 10.5 2.9368 10.5C3.0833 10.5 3.2207 10.4433 3.32363 10.3402L7.7779 5.88614C7.88107 5.7828 7.93774 5.64484 7.93741 5.49817C7.93774 5.35094 7.88107 5.21305 7.7779 5.1098Z" fill="black" fill-opacity="0.5"/>
</g>
<defs>
<clipPath id="clip0">
<rect width="10" height="10" fill="white" transform="translate(0 0.5)"/>
</clipPath>
</defs>
</svg>
