<svg width="16" height="17" viewBox="0 0 16 17" fill="none" xmlns="http://www.w3.org/2000/svg">
<g clip-path="url(#clip0)">
<path d="M2.66663 5C2.66663 3.254 4.0873 1.83333 5.8333 1.83333H11.922C11.7026 1.066 11.0033 0.5 10.1666 0.5H2.49996C1.48863 0.5 0.666626 1.322 0.666626 2.33333V12.6667C0.666626 13.678 1.48863 14.5 2.49996 14.5H2.66663V5Z" fill="#4E2E8A"/>
<path d="M13.5 3.16669H5.83333C4.822 3.16669 4 3.98869 4 5.00002V14.6667C4 15.678 4.822 16.5 5.83333 16.5H13.5C14.5113 16.5 15.3333 15.678 15.3333 14.6667V5.00002C15.3333 3.98869 14.5113 3.16669 13.5 3.16669ZM12.1667 14.5H7.16667C6.89067 14.5 6.66667 14.276 6.66667 14C6.66667 13.724 6.89067 13.5 7.16667 13.5H12.1667C12.4427 13.5 12.6667 13.724 12.6667 14C12.6667 14.276 12.4427 14.5 12.1667 14.5ZM12.1667 11.8334H7.16667C6.89067 11.8334 6.66667 11.6094 6.66667 11.3334C6.66667 11.0574 6.89067 10.8334 7.16667 10.8334H12.1667C12.4427 10.8334 12.6667 11.0574 12.6667 11.3334C12.6667 11.6094 12.4427 11.8334 12.1667 11.8334ZM12.1667 9.50003H7.16667C6.89067 9.50003 6.66667 9.27603 6.66667 9.00003C6.66667 8.72403 6.89067 8.50003 7.16667 8.50003H12.1667C12.4427 8.50003 12.6667 8.72403 12.6667 9.00003C12.6667 9.27603 12.4427 9.50003 12.1667 9.50003ZM12.1667 6.83336H7.16667C6.89067 6.83336 6.66667 6.60936 6.66667 6.33336C6.66667 6.05736 6.89067 5.83336 7.16667 5.83336H12.1667C12.4427 5.83336 12.6667 6.05736 12.6667 6.33336C12.6667 6.60936 12.4427 6.83336 12.1667 6.83336Z" fill="#4E2E8A"/>
</g>
<defs>
<clipPath id="clip0">
<rect width="16" height="16" fill="white" transform="translate(0 0.5)"/>
</clipPath>
</defs>
</svg>
