<svg width="16" height="17" viewBox="0 0 16 17" fill="none" xmlns="http://www.w3.org/2000/svg">
<g clip-path="url(#clip0)">
<path d="M8 7.9375C9.50152 7.9375 10.7188 6.72027 10.7188 5.21875C10.7188 3.71723 9.50152 2.5 8 2.5C6.49848 2.5 5.28125 3.71723 5.28125 5.21875C5.28125 6.72027 6.49848 7.9375 8 7.9375Z" fill="#4E2E8A"/>
<path d="M13.5 7.93746C14.4492 7.93746 15.2188 7.16795 15.2188 6.21872C15.2188 5.26948 14.4492 4.49997 13.5 4.49997C12.5508 4.49997 11.7812 5.26948 11.7812 6.21872C11.7812 7.16795 12.5508 7.93746 13.5 7.93746Z" fill="#4E2E8A"/>
<path d="M2.5 7.93746C3.44924 7.93746 4.21875 7.16795 4.21875 6.21872C4.21875 5.26948 3.44924 4.49997 2.5 4.49997C1.55076 4.49997 0.78125 5.26948 0.78125 6.21872C0.78125 7.16795 1.55076 7.93746 2.5 7.93746Z" fill="#4E2E8A"/>
<path d="M4.19344 9.48095C3.51688 8.92664 2.90416 9.00001 2.12188 9.00001C0.951875 9.00001 0 9.94626 0 11.1091V14.5219C0 15.0269 0.412188 15.4375 0.919062 15.4375C3.10738 15.4375 2.84375 15.4771 2.84375 15.3431C2.84375 12.9248 2.55731 11.1514 4.19344 9.48095V9.48095Z" fill="#4E2E8A"/>
<path d="M8.74403 9.01246C7.37766 8.89849 6.19 9.01377 5.16559 9.85934C3.45131 11.2325 3.78122 13.0813 3.78122 15.3431C3.78122 15.9415 4.26809 16.4375 4.87559 16.4375C11.4719 16.4375 11.7344 16.6502 12.1256 15.784C12.2539 15.4911 12.2187 15.5842 12.2187 12.7818C12.2187 10.556 10.2914 9.01246 8.74403 9.01246V9.01246Z" fill="#4E2E8A"/>
<path d="M13.8781 8.99996C13.0915 8.99996 12.4822 8.92734 11.8065 9.4809C13.4304 11.1389 13.1562 12.7914 13.1562 15.3431C13.1562 15.4779 12.9374 15.4375 15.0481 15.4375C15.5731 15.4375 16 15.0121 16 14.4893V11.109C16 9.94621 15.0481 8.99996 13.8781 8.99996Z" fill="#4E2E8A"/>
</g>
<defs>
<clipPath id="clip0">
<rect width="16" height="16" fill="white" transform="translate(0 0.5)"/>
</clipPath>
</defs>
</svg>
