<svg width="16" height="17" viewBox="0 0 16 17" fill="none" xmlns="http://www.w3.org/2000/svg">
<g clip-path="url(#clip0)">
<path d="M7.88597 8.20725C8.9448 8.20725 9.86167 7.82749 10.6108 7.07822C11.36 6.32908 11.7397 5.41246 11.7397 4.3535C11.7397 3.29491 11.36 2.37817 10.6107 1.62878C9.86143 0.879759 8.94468 0.5 7.88597 0.5C6.82702 0.5 5.91039 0.879759 5.16125 1.6289C4.41211 2.37804 4.03223 3.29479 4.03223 4.3535C4.03223 5.41246 4.41211 6.3292 5.16137 7.07834C5.91064 7.82736 6.82738 8.20725 7.88597 8.20725V8.20725Z" fill="#4E2E8A"/>
<path d="M14.629 12.8032C14.6074 12.4914 14.5637 12.1513 14.4993 11.7922C14.4344 11.4304 14.3508 11.0883 14.2507 10.7757C14.1473 10.4526 14.0067 10.1335 13.8328 9.82772C13.6524 9.51034 13.4405 9.23397 13.2027 9.00656C12.9541 8.76864 12.6496 8.57736 12.2976 8.43783C11.9467 8.29904 11.5579 8.22873 11.1421 8.22873C10.9787 8.22873 10.8208 8.29575 10.5157 8.49435C10.328 8.61679 10.1084 8.75839 9.86325 8.91501C9.65365 9.04855 9.36972 9.17367 9.01901 9.28695C8.67685 9.39767 8.32944 9.45382 7.98655 9.45382C7.64365 9.45382 7.29636 9.39767 6.95384 9.28695C6.60349 9.17379 6.31956 9.04867 6.11021 8.91513C5.86741 8.75998 5.64769 8.61838 5.45714 8.49423C5.15245 8.29562 4.99437 8.22861 4.83104 8.22861C4.41503 8.22861 4.02636 8.29904 3.67565 8.43796C3.32384 8.57724 3.01928 8.76852 2.77038 9.00668C2.53271 9.23422 2.32067 9.51046 2.1405 9.82772C1.96679 10.1335 1.82617 10.4525 1.72265 10.7758C1.62268 11.0885 1.53906 11.4304 1.47412 11.7922C1.40979 12.1508 1.36609 12.491 1.34448 12.8035C1.32324 13.1097 1.3125 13.4274 1.3125 13.7484C1.3125 14.5836 1.578 15.2597 2.10156 15.7584C2.61865 16.2504 3.30285 16.5001 4.13488 16.5001H11.8389C12.671 16.5001 13.3549 16.2506 13.8721 15.7584C14.3958 15.2601 14.6613 14.5838 14.6613 13.7482C14.6612 13.4259 14.6503 13.1079 14.629 12.8032V12.8032Z" fill="#4E2E8A"/>
</g>
<defs>
<clipPath id="clip0">
<rect width="15.9999" height="16" fill="white" transform="translate(0 0.5)"/>
</clipPath>
</defs>
</svg>
