<svg width="13" height="15" viewBox="0 0 13 15" fill="none" xmlns="http://www.w3.org/2000/svg">
<g clip-path="url(#clip0)">
<path d="M6.22314 7.82996C8.15635 7.82996 9.72314 6.26316 9.72314 4.32996C9.72314 2.39675 8.15635 0.829956 6.22314 0.829956C4.28994 0.829956 2.72314 2.39675 2.72314 4.32996C2.72314 6.26316 4.28994 7.82996 6.22314 7.82996ZM8.67314 8.70496H8.2165C7.60947 8.98386 6.93408 9.14246 6.22314 9.14246C5.51221 9.14246 4.83955 8.98386 4.22979 8.70496H3.77314C1.74424 8.70496 0.0981445 10.351 0.0981445 12.38V13.5175C0.0981445 14.2421 0.686035 14.83 1.41064 14.83H11.0356C11.7603 14.83 12.3481 14.2421 12.3481 13.5175V12.38C12.3481 10.351 10.7021 8.70496 8.67314 8.70496Z" fill="black" fill-opacity="0.5"/>
</g>
<defs>
<clipPath id="clip0">
<rect width="12.25" height="14" fill="white" transform="translate(0.0981445 0.829956)"/>
</clipPath>
</defs>
</svg>
