<svg width="15" height="14" viewBox="0 0 15 14" fill="none" xmlns="http://www.w3.org/2000/svg">
<g clip-path="url(#clip0)">
<path d="M13.9335 5.21719C14.0401 5.13242 14.1987 5.21172 14.1987 5.3457V10.9375C14.1987 11.6621 13.6108 12.25 12.8862 12.25H1.51123C0.786621 12.25 0.19873 11.6621 0.19873 10.9375V5.34844C0.19873 5.21172 0.35459 5.13516 0.463965 5.21992C1.07646 5.6957 1.88857 6.3 4.67764 8.32617C5.25459 8.74727 6.22803 9.6332 7.19873 9.62773C8.1749 9.63594 9.16748 8.73086 9.72256 8.32617C12.5116 6.3 13.321 5.69297 13.9335 5.21719ZM7.19873 8.75C7.83311 8.76094 8.74639 7.95156 9.20576 7.61797C12.8343 4.98477 13.1104 4.75508 13.9472 4.09883C14.1058 3.97578 14.1987 3.78437 14.1987 3.58203V3.0625C14.1987 2.33789 13.6108 1.75 12.8862 1.75H1.51123C0.786621 1.75 0.19873 2.33789 0.19873 3.0625V3.58203C0.19873 3.78437 0.291699 3.97305 0.450293 4.09883C1.28701 4.75234 1.56318 4.98477 5.1917 7.61797C5.65107 7.95156 6.56436 8.76094 7.19873 8.75Z" fill="#4E2E8A"/>
</g>
<defs>
<clipPath id="clip0">
<rect width="14" height="14" fill="white" transform="translate(0.19873)"/>
</clipPath>
</defs>
</svg>
