<svg width="15" height="14" viewBox="0 0 15 14" fill="none" xmlns="http://www.w3.org/2000/svg">
<path d="M12.0231 9.01817C13.212 8.16049 13.9368 7.30967 13.9671 7.27386L14.1987 6.99999L13.9671 6.72611C13.9368 6.6903 13.212 5.83949 12.0231 4.9818C10.4336 3.83521 8.76506 3.22913 7.1979 3.22913C6.35085 3.22913 5.4743 3.40656 4.59666 3.75029L0.92527 0L0.345215 0.592526L13.4705 14L14.0506 13.4075L10.6048 9.88762C11.0813 9.64559 11.5556 9.35537 12.0231 9.01817ZM7.1979 4.90507C8.32873 4.90507 9.24873 5.84485 9.24873 6.99999C9.24873 7.42634 9.12311 7.82315 8.90807 8.15443L8.30814 7.54159C8.38516 7.37749 8.4284 7.19381 8.4284 6.99999C8.4284 6.3069 7.8764 5.74304 7.1979 5.74304C7.00816 5.74304 6.82837 5.7872 6.66772 5.86588L6.06779 5.25305C6.39204 5.03339 6.78052 4.90507 7.1979 4.90507Z" fill="black" fill-opacity="0.5"/>
<path d="M7.19794 9.09484C6.06711 9.09484 5.14711 8.15507 5.14711 6.99993C5.14711 6.89943 5.15449 6.80069 5.16797 6.7039L3.04334 4.5336C2.81884 4.67245 2.59536 4.82167 2.37343 4.98177C1.18482 5.83949 0.460389 6.69033 0.430119 6.72614L0.19873 6.99993L0.430119 7.27372C0.460389 7.30953 1.18482 8.16037 2.37343 9.01806C3.96244 10.1647 5.63075 10.7708 7.19794 10.7708C7.76202 10.7708 8.33926 10.6918 8.92121 10.5378L7.48773 9.07356C7.39298 9.0873 7.29632 9.09484 7.19794 9.09484Z" fill="black" fill-opacity="0.5"/>
</svg>
