<svg width="13" height="14" viewBox="0 0 13 14" fill="none" xmlns="http://www.w3.org/2000/svg">
<g clip-path="url(#clip0)">
<path d="M11.1362 6.125H10.48V4.15625C10.48 1.86484 8.61514 0 6.32373 0C4.03232 0 2.16748 1.86484 2.16748 4.15625V6.125H1.51123C0.786621 6.125 0.19873 6.71289 0.19873 7.4375V12.6875C0.19873 13.4121 0.786621 14 1.51123 14H11.1362C11.8608 14 12.4487 13.4121 12.4487 12.6875V7.4375C12.4487 6.71289 11.8608 6.125 11.1362 6.125ZM8.29248 6.125H4.35498V4.15625C4.35498 3.0707 5.23818 2.1875 6.32373 2.1875C7.40928 2.1875 8.29248 3.0707 8.29248 4.15625V6.125Z" fill="black" fill-opacity="0.5"/>
</g>
<defs>
<clipPath id="clip0">
<rect width="12.25" height="14" fill="white" transform="translate(0.19873)"/>
</clipPath>
</defs>
</svg>
