<svg width="15" height="14" viewBox="0 0 15 14" fill="none" xmlns="http://www.w3.org/2000/svg">
<g clip-path="url(#clip0)">
<path d="M13.6902 0.672815L10.8464 0.0165646C10.5374 -0.0545291 10.2203 0.106799 10.0945 0.396643L8.78197 3.45914C8.66713 3.72711 8.74369 4.04156 8.97065 4.22477L10.6277 5.58102C9.6433 7.67828 7.92338 9.42281 5.78236 10.4263L4.42612 8.7693C4.24018 8.54235 3.92846 8.46578 3.66049 8.58063L0.59799 9.89313C0.305412 10.0216 0.144084 10.3388 0.215177 10.6478L0.871427 13.4916C0.939787 13.7869 1.20229 14.0002 1.51127 14.0002C8.51401 14.0002 14.1988 8.32633 14.1988 1.31266C14.1988 1.00641 13.9882 0.741174 13.6902 0.672815Z" fill="black" fill-opacity="0.5"/>
</g>
<defs>
<clipPath id="clip0">
<rect width="14" height="14" fill="white" transform="translate(0.19873 0.000213623)"/>
</clipPath>
</defs>
</svg>
