<svg width="13" height="15" viewBox="0 0 13 15" fill="none" xmlns="http://www.w3.org/2000/svg">
<g clip-path="url(#clip0)">
<path d="M6.32373 7.00375C8.25693 7.00375 9.82373 5.43696 9.82373 3.50375C9.82373 1.57055 8.25693 0.00375366 6.32373 0.00375366C4.39053 0.00375366 2.82373 1.57055 2.82373 3.50375C2.82373 5.43696 4.39053 7.00375 6.32373 7.00375ZM8.77373 7.87875H8.31709C7.71006 8.15766 7.03467 8.31625 6.32373 8.31625C5.61279 8.31625 4.94014 8.15766 4.33037 7.87875H3.87373C1.84482 7.87875 0.19873 9.52485 0.19873 11.5538V12.6913C0.19873 13.4159 0.786621 14.0038 1.51123 14.0038H11.1362C11.8608 14.0038 12.4487 13.4159 12.4487 12.6913V11.5538C12.4487 9.52485 10.8026 7.87875 8.77373 7.87875Z" fill="#4E2E8A"/>
</g>
<defs>
<clipPath id="clip0">
<rect width="12.25" height="14" fill="white" transform="translate(0.19873 0.00375366)"/>
</clipPath>
</defs>
</svg>
