<svg width="40" height="40" viewBox="0 0 40 40" fill="none" xmlns="http://www.w3.org/2000/svg">
<rect width="40" height="40" fill="white"/>
<path d="M26.4226 13.5775L23.0893 10.2441C23.0891 10.244 23.089 10.2439 23.0889 10.2437C23.0696 10.2245 23.0493 10.2062 23.0282 10.1889C23.0186 10.181 23.0084 10.1741 22.9985 10.1667C22.9867 10.1578 22.9751 10.1487 22.9627 10.1404C22.9509 10.1325 22.9385 10.1256 22.9264 10.1183C22.9152 10.1117 22.9043 10.1047 22.8928 10.0985C22.8804 10.0919 22.8676 10.0862 22.855 10.0803C22.843 10.0746 22.8312 10.0686 22.8189 10.0635C22.8066 10.0584 22.794 10.0543 22.7815 10.0498C22.7684 10.0451 22.7554 10.0401 22.7419 10.036C22.7294 10.0322 22.7167 10.0294 22.7041 10.0263C22.6904 10.0228 22.6768 10.019 22.6629 10.0162C22.6482 10.0133 22.6335 10.0115 22.6187 10.0094C22.6066 10.0077 22.5946 10.0054 22.5823 10.0042C22.5276 9.99877 22.4725 9.99877 22.4178 10.0042C22.4055 10.0054 22.3935 10.0077 22.3814 10.0094C22.3666 10.0115 22.3518 10.0133 22.3372 10.0162C22.3232 10.019 22.3097 10.0228 22.296 10.0263C22.2834 10.0294 22.2707 10.0322 22.2582 10.036C22.2447 10.0401 22.2317 10.0451 22.2186 10.0498C22.2061 10.0543 22.1935 10.0584 22.1812 10.0635C22.1689 10.0686 22.1571 10.0746 22.1451 10.0803C22.1325 10.0862 22.1197 10.0919 22.1073 10.0985C22.0958 10.1047 22.0849 10.1117 22.0737 10.1183C22.0616 10.1256 22.0493 10.1325 22.0374 10.1404C22.025 10.1487 22.0135 10.1578 22.0016 10.1667C21.9917 10.1741 21.9815 10.181 21.9719 10.1889C21.9508 10.2062 21.9305 10.2245 21.9112 10.2437C21.9111 10.2439 21.9109 10.244 21.9108 10.2441L18.5775 13.5774C18.2521 13.9029 18.2521 14.4305 18.5775 14.756C18.9029 15.0814 19.4306 15.0814 19.756 14.756L21.6668 12.8452V22.5001C21.6668 22.9603 22.0398 23.3334 22.5001 23.3334C22.9603 23.3334 23.3334 22.9603 23.3334 22.5001V12.8453L25.2441 14.756C25.5696 15.0814 26.0972 15.0814 26.4226 14.756C26.748 14.4305 26.748 13.9029 26.4226 13.5775Z" fill="#4E2E8A"/>
<path d="M20.2441 25.2441L18.3333 27.1549V17.5001C18.3333 17.0398 17.9603 16.6667 17.5 16.6667C17.0398 16.6667 16.6667 17.0398 16.6667 17.5001V27.1549L14.7559 25.2441C14.4305 24.9187 13.9029 24.9187 13.5774 25.2441C13.252 25.5696 13.252 26.0972 13.5774 26.4227L16.9108 29.756C16.9109 29.7561 16.9111 29.7562 16.9112 29.7564C16.9305 29.7756 16.9508 29.7939 16.9718 29.8112C16.9815 29.8191 16.9917 29.826 17.0016 29.8334C17.0134 29.8423 17.025 29.8515 17.0373 29.8597C17.0492 29.8677 17.0615 29.8745 17.0737 29.8818C17.0849 29.8885 17.0958 29.8955 17.1072 29.9016C17.1197 29.9082 17.1324 29.9139 17.1451 29.9198C17.1571 29.9255 17.1689 29.9315 17.1811 29.9366C17.1935 29.9416 17.206 29.9458 17.2185 29.9502C17.2317 29.955 17.2447 29.96 17.2581 29.9641C17.2706 29.9679 17.2833 29.9706 17.296 29.9738C17.3097 29.9773 17.3232 29.9811 17.3372 29.9839C17.3519 29.9868 17.3666 29.9885 17.3813 29.9906C17.3935 29.9923 17.4055 29.9946 17.4178 29.9959C17.4725 30.0012 17.5276 30.0012 17.5823 29.9959C17.5946 29.9946 17.6065 29.9923 17.6187 29.9906C17.6335 29.9885 17.6483 29.9868 17.6629 29.9838C17.6769 29.9811 17.6904 29.9772 17.7041 29.9738C17.7167 29.9706 17.7294 29.9678 17.7419 29.964C17.7554 29.96 17.7684 29.9549 17.7815 29.9502C17.794 29.9457 17.8066 29.9416 17.8189 29.9365C17.8311 29.9314 17.8429 29.9255 17.8549 29.9198C17.8676 29.9138 17.8804 29.9082 17.8928 29.9015C17.9042 29.8954 17.9151 29.8884 17.9263 29.8818C17.9385 29.8745 17.9508 29.8676 17.9627 29.8596C17.975 29.8514 17.9865 29.8423 17.9983 29.8334C18.0083 29.826 18.0185 29.8191 18.0282 29.8111C18.0491 29.794 18.0692 29.7759 18.0883 29.7568C18.0886 29.7565 18.089 29.7562 18.0892 29.7559L21.4226 26.4226C21.748 26.0972 21.748 25.5695 21.4226 25.2441C21.0971 24.9187 20.5696 24.9187 20.2441 25.2441Z" fill="#4E2E8A"/>
</svg>
