<svg width="15" height="14" viewBox="0 0 15 14" fill="none" xmlns="http://www.w3.org/2000/svg">
<g clip-path="url(#clip0)">
<path d="M3.47892 8.46043L2.9916 10.2797L1.21045 10.3173C0.67815 9.33004 0.376221 8.20045 0.376221 7.00006C0.376221 5.83929 0.658518 4.74466 1.15891 3.78082H1.15929L2.74501 4.07154L3.43965 5.64774C3.29426 6.0716 3.21502 6.5266 3.21502 7.00006C3.21508 7.5139 3.30815 8.00622 3.47892 8.46043Z" fill="#FBBB00"/>
<path d="M14.2541 5.69238C14.3345 6.11583 14.3764 6.55314 14.3764 7.00007C14.3764 7.50123 14.3237 7.99008 14.2233 8.46162C13.8826 10.0662 12.9922 11.4674 11.7587 12.4589L11.7583 12.4585L9.76103 12.3566L9.47835 10.592C10.2968 10.112 10.9364 9.36085 11.2734 8.46162H7.53027V5.69238H11.328H14.2541Z" fill="#518EF8"/>
<path d="M11.7581 12.4585L11.7585 12.4589C10.5589 13.4231 9.03506 14 7.37622 14C4.71045 14 2.39277 12.5101 1.21045 10.3174L3.47891 8.46045C4.07006 10.0381 5.59198 11.1612 7.37622 11.1612C8.14313 11.1612 8.86161 10.9539 9.47813 10.592L11.7581 12.4585Z" fill="#28B446"/>
<path d="M11.8443 1.61159L9.57663 3.46812C8.93856 3.06929 8.18431 2.83889 7.37625 2.83889C5.55163 2.83889 4.00124 4.01349 3.4397 5.64775L1.15932 3.78083H1.15894C2.32394 1.53467 4.67086 6.10352e-05 7.37625 6.10352e-05C9.0747 6.10352e-05 10.632 0.605069 11.8443 1.61159Z" fill="#F14336"/>
</g>
<defs>
<clipPath id="clip0">
<rect width="14" height="14" fill="white" transform="translate(0.376221)"/>
</clipPath>
</defs>
</svg>
